<svg width="26" height="25" viewBox="0 0 26 25" fill="none" xmlns="http://www.w3.org/2000/svg">
<path d="M5.79237 2.70122C5.79237 4.19784 4.6961 5.40243 2.88116 5.40243C1.17584 5.40243 0.0673828 4.19784 0.0673828 2.70122C0.0673828 1.18026 1.2002 0 2.94206 0C4.69609 0 5.75583 1.16809 5.79237 2.70122ZM0.213556 24.895V7.53177H5.62184V24.895H0.213556Z" fill="white"/>
<path d="M8.84978 13.0679C8.84978 10.9021 8.7767 9.08912 8.70361 7.53166H13.3932L13.6369 9.94085H13.7465C14.453 8.80926 16.1948 7.13013 19.1182 7.13013C22.6751 7.13013 25.3427 9.51499 25.3427 14.6254V24.8827H19.9344V15.2581C19.9344 13.0193 19.1548 11.4983 17.1937 11.4983C15.6954 11.4983 14.8184 12.5326 14.4164 13.5181C14.2703 13.871 14.2337 14.3699 14.2337 14.8687V24.8827H8.82543V13.0679H8.84978Z" fill="white"/>
</svg>
