<svg width="30" height="25" viewBox="0 0 30 25" fill="none" xmlns="http://www.w3.org/2000/svg">
<path d="M9.20873 24.2722C20.2446 24.2722 26.2863 15.1343 26.2863 7.2132C26.2863 6.95768 26.2863 6.68999 26.2741 6.43447C27.4435 5.58274 28.4667 4.53632 29.2706 3.33172C28.1987 3.80626 27.0415 4.13479 25.8234 4.2808C27.0659 3.53857 28.016 2.37048 28.4667 0.959031C27.3095 1.64042 26.0183 2.13929 24.6541 2.41915C23.5578 1.25105 21.9986 0.520996 20.2689 0.520996C16.9558 0.520996 14.2638 3.21004 14.2638 6.51964C14.2638 6.99418 14.3125 7.44438 14.4221 7.88242C9.42799 7.63907 5.00633 5.25421 2.04638 1.62825C1.53479 2.51649 1.23027 3.53857 1.23027 4.64583C1.23027 6.72649 2.29 8.56381 3.89788 9.63456C2.92341 9.59806 1.99766 9.33037 1.19372 8.88017C1.19372 8.9045 1.19372 8.92884 1.19372 8.95317C1.19372 11.8612 3.26447 14.2826 6.00516 14.8301C5.50575 14.964 4.96979 15.037 4.42165 15.037C4.03186 15.037 3.65426 15.0005 3.28883 14.9275C4.05623 17.3123 6.27314 19.0401 8.89203 19.0888C6.83346 20.6949 4.25112 21.6562 1.43734 21.6562C0.950107 21.6562 0.475054 21.6319 0 21.571C2.66761 23.2867 5.82245 24.2722 9.20873 24.2722Z" fill="white"/>
</svg>
