<svg width="32" height="23" viewBox="0 0 32 23" fill="none" xmlns="http://www.w3.org/2000/svg">
<path d="M31.3305 3.63135C30.9651 2.26858 29.8931 1.18566 28.5411 0.820627C26.0805 0.163574 16.214 0.163574 16.214 0.163574C16.214 0.163574 6.34754 0.163574 3.887 0.820627C2.53493 1.18566 1.463 2.25641 1.09758 3.63135C0.439811 6.10138 0.439819 11.2726 0.439819 11.2726C0.439819 11.2726 0.439811 16.4317 1.09758 18.9139C1.463 20.2767 2.53493 21.3596 3.887 21.7125C6.34754 22.3817 16.214 22.3817 16.214 22.3817C16.214 22.3817 26.0805 22.3817 28.5411 21.7125C29.8931 21.3474 30.9651 20.2767 31.3305 18.9139C31.9882 16.4439 31.9882 11.2726 31.9882 11.2726C31.9882 11.2726 32.0004 6.10138 31.3305 3.63135ZM12.9861 15.9572V6.58809L21.2325 11.2726L12.9861 15.9572Z" fill="white"/>
</svg>
